<svg width="147" height="50" viewBox="0 0 147 50" fill="none" xmlns="http://www.w3.org/2000/svg">
<path d="M59.08 37C54.8667 37 52.76 34.6533 52.76 29.96V19.4H49.64C49.3733 19.4 49.1467 19.32 48.96 19.16C48.8 18.9733 48.72 18.7467 48.72 18.48V17.12C48.72 16.8533 48.8 16.64 48.96 16.48C49.1467 16.2933 49.3733 16.2 49.64 16.2H52.76V9.52C52.76 9.25333 52.84 9.04 53 8.88C53.1867 8.69333 53.4133 8.6 53.68 8.6H55.56C55.8267 8.6 56.04 8.69333 56.2 8.88C56.3867 9.04 56.48 9.25333 56.48 9.52V16.2H61.44C61.7067 16.2 61.92 16.2933 62.08 16.48C62.2667 16.64 62.36 16.8533 62.36 17.12V18.48C62.36 18.7467 62.2667 18.9733 62.08 19.16C61.92 19.32 61.7067 19.4 61.44 19.4H56.48V29.68C56.48 31.0133 56.7067 32.0267 57.16 32.72C57.6133 33.3867 58.36 33.72 59.4 33.72H61.84C62.1067 33.72 62.32 33.8133 62.48 34C62.6667 34.16 62.76 34.3733 62.76 34.64V36.08C62.76 36.3467 62.6667 36.5733 62.48 36.76C62.32 36.92 62.1067 37 61.84 37H59.08ZM75.105 37.4C72.1717 37.4 69.8917 36.5733 68.265 34.92C66.665 33.2667 65.8117 31.0667 65.705 28.32L65.665 26.6L65.705 24.88C65.8117 22.16 66.6783 19.9733 68.305 18.32C69.9317 16.64 72.1983 15.8 75.105 15.8C78.0117 15.8 80.2783 16.64 81.905 18.32C83.5317 19.9733 84.3983 22.16 84.505 24.88C84.5317 25.1733 84.545 25.7467 84.545 26.6C84.545 27.4533 84.5317 28.0267 84.505 28.32C84.3983 31.0667 83.5317 33.2667 81.905 34.92C80.305 36.5733 78.0383 37.4 75.105 37.4ZM75.105 34.32C76.785 34.32 78.105 33.7867 79.065 32.72C80.0517 31.6533 80.585 30.12 80.665 28.12C80.6917 27.8533 80.705 27.3467 80.705 26.6C80.705 25.8533 80.6917 25.3467 80.665 25.08C80.585 23.08 80.0517 21.5467 79.065 20.48C78.105 19.4133 76.785 18.88 75.105 18.88C73.425 18.88 72.0917 19.4133 71.105 20.48C70.1183 21.5467 69.5983 23.08 69.545 25.08L69.505 26.6L69.545 28.12C69.5983 30.12 70.1183 31.6533 71.105 32.72C72.0917 33.7867 73.425 34.32 75.105 34.32ZM89.8031 37C89.5365 37 89.3098 36.92 89.1231 36.76C88.9631 36.5733 88.8831 36.3467 88.8831 36.08V33.2C88.8831 32.9333 88.9631 32.72 89.1231 32.56C89.3098 32.3733 89.5365 32.28 89.8031 32.28H92.6831C92.9498 32.28 93.1765 32.3733 93.3631 32.56C93.5498 32.72 93.6431 32.9333 93.6431 33.2V36.08C93.6431 36.3467 93.5498 36.5733 93.3631 36.76C93.1765 36.92 92.9498 37 92.6831 37H89.8031ZM106.401 37.4C103.788 37.4 101.748 36.5867 100.281 34.96C98.8413 33.3067 98.0546 30.9867 97.9213 28L97.8813 26.6L97.9213 25.16C98.0279 22.28 98.8146 20 100.281 18.32C101.775 16.64 103.815 15.8 106.401 15.8C108.828 15.8 110.788 16.5867 112.281 18.16V9.6C112.281 9.30666 112.375 9.06667 112.561 8.88C112.748 8.69333 112.988 8.6 113.281 8.6H118.161C118.455 8.6 118.695 8.69333 118.881 8.88C119.068 9.06667 119.161 9.30666 119.161 9.6V36C119.161 36.2667 119.068 36.5067 118.881 36.72C118.695 36.9067 118.455 37 118.161 37H113.641C113.375 37 113.135 36.9067 112.921 36.72C112.735 36.5067 112.641 36.2667 112.641 36V34.72C111.175 36.5067 109.095 37.4 106.401 37.4ZM108.601 32.04C109.801 32.04 110.695 31.6667 111.281 30.92C111.868 30.1467 112.201 29.16 112.281 27.96C112.308 27.6133 112.321 27.1067 112.321 26.44C112.321 25.8 112.308 25.3067 112.281 24.96C112.228 23.8667 111.895 22.96 111.281 22.24C110.668 21.52 109.775 21.16 108.601 21.16C107.348 21.16 106.441 21.5333 105.881 22.28C105.348 23.0267 105.041 24.0533 104.961 25.36C104.935 25.6267 104.921 26.04 104.921 26.6C104.921 27.16 104.935 27.5733 104.961 27.84C105.041 29.1467 105.348 30.1733 105.881 30.92C106.441 31.6667 107.348 32.04 108.601 32.04ZM133.716 37.4C130.409 37.4 127.862 36.6133 126.076 35.04C124.289 33.4667 123.316 31.2533 123.156 28.4C123.129 28.0533 123.116 27.4533 123.116 26.6C123.116 25.7467 123.129 25.1467 123.156 24.8C123.316 21.9733 124.316 19.7733 126.156 18.2C127.996 16.6 130.516 15.8 133.716 15.8C136.942 15.8 139.476 16.6 141.316 18.2C143.156 19.7733 144.156 21.9733 144.316 24.8C144.342 25.1467 144.356 25.7467 144.356 26.6C144.356 27.4533 144.342 28.0533 144.316 28.4C144.156 31.2533 143.182 33.4667 141.396 35.04C139.609 36.6133 137.049 37.4 133.716 37.4ZM133.716 32.52C134.889 32.52 135.756 32.1733 136.316 31.48C136.876 30.76 137.196 29.6667 137.276 28.2C137.302 27.9333 137.316 27.4 137.316 26.6C137.316 25.8 137.302 25.2667 137.276 25C137.196 23.56 136.862 22.48 136.276 21.76C135.716 21.04 134.862 20.68 133.716 20.68C131.502 20.68 130.329 22.12 130.196 25L130.156 26.6L130.196 28.2C130.249 29.6667 130.556 30.76 131.116 31.48C131.702 32.1733 132.569 32.52 133.716 32.52Z" fill="white"/>
<path d="M20.1758 19.7143H0V23.5714H20.1758V19.7143ZM20.1758 12H0V15.8571H20.1758V12ZM0 31.2857H13.4505V27.4286H0V31.2857ZM32.7857 22.6071L35.3077 25.5L23.5553 39L15.9725 30.3214L18.4945 27.4286L23.5553 33.2143L32.7857 22.6071Z" fill="white"/>
</svg>
